<svg width="48" height="43" viewBox="0 0 48 43" fill="none" xmlns="http://www.w3.org/2000/svg">
<path fill-rule="evenodd" clip-rule="evenodd" d="M37.1799 17.3184C37.5364 17.59 37.6052 18.0993 37.3336 18.4558L28.6771 29.8174C28.5352 30.0037 28.3197 30.1196 28.086 30.1353C27.8524 30.151 27.6233 30.065 27.4577 29.8994L22.5884 25.0302C22.2715 24.7132 22.2715 24.1994 22.5884 23.8825C22.9054 23.5655 23.4192 23.5655 23.7361 23.8825L27.9488 28.0951L36.0425 17.4721C36.3142 17.1156 36.8234 17.0468 37.1799 17.3184Z" fill="#0F62FE"/>
<path fill-rule="evenodd" clip-rule="evenodd" d="M45.7985 24.6807C45.7985 33.6705 38.6229 40.9065 29.8345 40.9065C23.4438 40.9065 17.9059 37.0802 15.3598 31.5357H13.0835C15.7586 38.2572 22.2506 43.0001 29.8345 43.0001C39.8075 43.0001 47.8922 34.7983 47.8922 24.6807C47.8922 14.5632 39.8075 6.36133 29.8345 6.36133C21.172 6.36133 14.3145 11.3716 12.5619 19.6281L14.3279 20.8058C16.0395 13.6995 22.3526 8.45497 29.8345 8.45497C38.6229 8.45497 45.7985 15.691 45.7985 24.6807Z" fill="#0F62FE"/>
<rect x="4.97241" y="21.9824" width="9.68311" height="2.09365" rx="1.04682" fill="#0F62FE"/>
<rect x="4.97241" y="28.5254" width="9.68311" height="2.09365" rx="1.04682" fill="#0F62FE"/>
<rect y="25.3848" width="14.6555" height="2.09365" rx="1.04682" fill="#0F62FE"/>
<rect x="28.7876" y="8.375" width="7.85117" height="2.09365" rx="1.04682" transform="rotate(-90 28.7876 8.375)" fill="#0F62FE"/>
<rect x="25.9089" width="7.85117" height="2.09365" rx="1.04682" fill="#0F62FE"/>
</svg>
