<svg width="140" height="147" viewBox="0 0 140 147" fill="none" xmlns="http://www.w3.org/2000/svg">
<path d="M0 129.259V111.517H33.7931V147H0V129.259ZM28.9655 129.259V116.586H4.82759V141.931H28.9655V129.259ZM9.65517 129.259V121.655H24.1379V136.862H9.65517V129.259ZM43.4483 144.466V141.931H38.6207V131.793H43.4483V116.586H48.2759V111.517H38.6207V106.448H19.3103V101.379H24.1379V96.3103H14.4828V106.448H9.65517V101.379H0V96.3103H9.65517V86.1724H4.82759V91.2414H0V81.1034H9.65517V86.1724H14.4828V91.2414H19.3103V86.1724H24.1379V91.2414H33.7931V86.1724H28.9655V81.1034H14.4828V76.0345H28.9655V70.9655H14.4828V65.8966H9.65517V70.9655H0V55.7586H4.82759V60.8276H33.7931V55.7586H28.9655V50.6897H19.3103V55.7586H14.4828V50.6897H4.82759V40.5517H14.4828V50.6897H19.3103V45.6207H28.9655V40.5517H33.7931V45.6207H28.9655V50.6897H33.7931V55.7586H38.6207V45.6207H43.4483V40.5517H38.6207V25.3448H48.2759V30.4138H53.1034V35.4828H48.2759V40.5517H53.1034V70.9655H43.4483V65.8966H38.6207V70.9655H33.7931V76.0345H28.9655V81.1034H33.7931V86.1724H38.6207V91.2414H48.2759V86.1724H43.4483V81.1034H38.6207V76.0345H48.2759V86.1724H53.1034V76.0345H57.931V86.1724H62.7586V70.9655H67.5862V65.8966H72.4138V70.9655H67.5862V76.0345H72.4138V81.1034H86.8965V76.0345H82.069V70.9655H77.2414V60.8276H72.4138V55.7586H77.2414V50.6897H82.069V45.6207H77.2414V40.5517H72.4138V50.6897H67.5862V45.6207H62.7586V50.6897H57.931V45.6207H62.7586V40.5517H57.931V25.3448H53.1034V20.2759H57.931V25.3448H62.7586V5.06897H67.5862V15.2069H77.2414V10.1379H72.4138V0H82.069V5.06897H77.2414V10.1379H86.8965V5.06897H91.7241V0H101.379V15.2069H91.7241V10.1379H86.8965V20.2759H91.7241V35.4828H96.5517V30.4138H101.379V55.7586H111.034V50.6897H106.207V40.5517H115.862V55.7586H125.517V50.6897H120.69V40.5517H125.517V50.6897H130.345V45.6207H140V55.7586H135.172V50.6897H130.345V55.7586H125.517V70.9655H130.345V76.0345H125.517V81.1034H115.862V86.1724H111.034V91.2414H101.379V86.1724H96.5517V81.1034H91.7241V91.2414H96.5517V96.3103H111.034V101.379H120.69V96.3103H115.862V91.2414H120.69V86.1724H125.517V91.2414H130.345V96.3103H135.172V86.1724H130.345V81.1034H140V96.3103H135.172V106.448H140V116.586H135.172V131.793H140V136.862H125.517V147H111.034V141.931H120.69V136.862H111.034V126.724H106.207V136.862H101.379V141.931H106.207V147H96.5517V131.793H91.7241V141.931H86.8965V136.862H82.069V116.586H86.8965V131.793H91.7241V116.586H96.5517V106.448H91.7241V101.379H86.8965V96.3103H91.7241V91.2414H86.8965V86.1724H82.069V106.448H86.8965V111.517H77.2414V121.655H72.4138V131.793H77.2414V136.862H72.4138V141.931H82.069V147H72.4138V141.931H67.5862V136.862H62.7586V147H43.4483V144.466ZM57.931 136.862V131.793H62.7586V116.586H53.1034V121.655H57.931V126.724H48.2759V131.793H43.4483V136.862H48.2759V141.931H57.931V136.862ZM125.517 131.793V126.724H130.345V116.586H135.172V111.517H130.345V96.3103H125.517V111.517H130.345V116.586H125.517V121.655H120.69V136.862H125.517V131.793ZM101.379 129.259V126.724H96.5517V131.793H101.379V129.259ZM72.4138 119.121V116.586H67.5862V121.655H72.4138V119.121ZM115.862 114.052V106.448H101.379V121.655H115.862V114.052ZM106.207 114.052V111.517H111.034V116.586H106.207V114.052ZM67.5862 108.983V106.448H77.2414V101.379H67.5862V96.3103H62.7586V101.379H67.5862V106.448H57.931V101.379H53.1034V106.448H48.2759V101.379H43.4483V96.3103H38.6207V91.2414H33.7931V96.3103H28.9655V101.379H33.7931V96.3103H38.6207V101.379H43.4483V106.448H48.2759V111.517H67.5862V108.983ZM53.1034 93.7759V91.2414H48.2759V96.3103H53.1034V93.7759ZM77.2414 91.2414V86.1724H67.5862V91.2414H72.4138V96.3103H77.2414V91.2414ZM106.207 83.6379V81.1034H101.379V86.1724H106.207V83.6379ZM115.862 78.569V76.0345H120.69V60.8276H115.862V65.8966H111.034V70.9655H106.207V65.8966H96.5517V60.8276H91.7241V55.7586H96.5517V40.5517H91.7241V35.4828H86.8965V30.4138H82.069V35.4828H77.2414V20.2759H82.069V25.3448H86.8965V20.2759H82.069V15.2069H77.2414V20.2759H72.4138V35.4828H77.2414V40.5517H82.069V35.4828H86.8965V50.6897H82.069V55.7586H77.2414V60.8276H82.069V70.9655H86.8965V65.8966H96.5517V70.9655H101.379V76.0345H111.034V81.1034H115.862V78.569ZM111.034 73.5V70.9655H115.862V76.0345H111.034V73.5ZM33.7931 68.431V65.8966H38.6207V60.8276H33.7931V65.8966H28.9655V70.9655H33.7931V68.431ZM48.2759 58.2931V55.7586H43.4483V60.8276H48.2759V58.2931ZM48.2759 32.9483V30.4138H43.4483V35.4828H48.2759V32.9483ZM67.5862 30.4138V25.3448H62.7586V35.4828H67.5862V30.4138ZM96.5517 7.60345V5.06897H91.7241V10.1379H96.5517V7.60345ZM135.172 144.466V141.931H140V147H135.172V144.466ZM135.172 70.9655V65.8966H130.345V60.8276H135.172V65.8966H140V76.0345H135.172V70.9655ZM0 17.7414V0H33.7931V35.4828H0V17.7414ZM28.9655 17.7414V5.06897H4.82759V30.4138H28.9655V17.7414ZM9.65517 17.7414V10.1379H24.1379V25.3448H9.65517V17.7414ZM106.207 17.7414V0H140V35.4828H106.207V17.7414ZM135.172 17.7414V5.06897H111.034V30.4138H135.172V17.7414ZM115.862 17.7414V10.1379H130.345V25.3448H115.862V17.7414ZM38.6207 17.7414V15.2069H43.4483V20.2759H38.6207V17.7414ZM48.2759 12.6724V10.1379H43.4483V0H48.2759V5.06897H53.1034V0H57.931V5.06897H53.1034V15.2069H48.2759V12.6724Z" fill="black"/>
</svg>
