<svg width="30" height="30" viewBox="0 0 30 30" fill="none" xmlns="http://www.w3.org/2000/svg">
<g clip-path="url(#clip0_535_9525)">
<path d="M29.7075 15.3456C29.7075 14.3259 29.6248 13.3007 29.4485 12.2976H15.3V18.0738H23.4022C23.0659 19.9368 21.9857 21.5848 20.4038 22.632V26.3799H25.2375C28.0761 23.7674 29.7075 19.9092 29.7075 15.3456Z" fill="#4285F4"/>
<path d="M15.3 30.001C19.3455 30.001 22.7573 28.6727 25.243 26.3799L20.4093 22.6319C19.0644 23.5469 17.3283 24.065 15.3055 24.065C11.3922 24.065 8.07418 21.4249 6.88366 17.8754H1.8956V21.739C4.44199 26.8043 9.62847 30.001 15.3 30.001V30.001Z" fill="#34A853"/>
<path d="M6.87816 17.8753C6.24983 16.0124 6.24983 13.9951 6.87816 12.1322V8.26849H1.89561C-0.231888 12.507 -0.231888 17.5005 1.89561 21.739L6.87816 17.8753V17.8753Z" fill="#FBBC04"/>
<path d="M15.3 5.93708C17.4385 5.90401 19.5054 6.70871 21.0542 8.18583L25.3367 3.90327C22.625 1.35688 19.0259 -0.0430825 15.3 0.00101083C9.62847 0.00101083 4.44199 3.19778 1.8956 8.26851L6.87815 12.1322C8.06315 8.57716 11.3867 5.93708 15.3 5.93708V5.93708Z" fill="#EA4335"/>
</g>
<defs>
<clipPath id="clip0_535_9525">
<rect width="30" height="30" fill="white"/>
</clipPath>
</defs>
</svg>
